<svg id="Layer_1" data-name="Layer 1" xmlns="http://www.w3.org/2000/svg" xmlns:xlink="http://www.w3.org/1999/xlink" viewBox="0 0 98 23"><defs><style>.cls-1{fill:url(#linear-gradient);}</style><linearGradient id="linear-gradient" x1="-0.22" y1="1.04" x2="98.22" y2="21.96" gradientUnits="userSpaceOnUse"><stop offset="0" stop-color="#f04"/><stop offset="1" stop-color="#ff5900"/></linearGradient></defs><title>logo</title><path class="cls-1" d="M13,8.43a2.29,2.29,0,0,0-1.39.47,3.27,3.27,0,0,0-1,1.4,5.25,5.25,0,0,0-.38,2,2.21,2.21,0,0,0,.41,1.46,1.59,1.59,0,0,0,1.28.47,5.44,5.44,0,0,0,2-.45v1.52a6.49,6.49,0,0,1-2.35.45,3,3,0,0,1-2.31-.87,3.49,3.49,0,0,1-.83-2.48A6.62,6.62,0,0,1,9,9.55a4.63,4.63,0,0,1,1.63-2A4.14,4.14,0,0,1,13,6.92a5.75,5.75,0,0,1,1.31.13,5.23,5.23,0,0,1,1.21.48L14.79,9a4.66,4.66,0,0,0-1-.46A2.82,2.82,0,0,0,13,8.43Zm7.77,7.19H19l.81-3.83a3.2,3.2,0,0,0,.09-.7q0-.72-.63-.72a1.23,1.23,0,0,0-1,.67,5.67,5.67,0,0,0-.69,1.86L17,15.62H15.22L17.15,6.5h1.77c-.15.71-.27,1.25-.35,1.63s-.25,1-.51,1.81h.05a3,3,0,0,1,.81-.72,1.87,1.87,0,0,1,1-.28,1.63,1.63,0,0,1,1.25.49,2,2,0,0,1,.44,1.4,5,5,0,0,1-.13,1.05Zm3.9.11a1.64,1.64,0,0,1-1.36-.62,2.76,2.76,0,0,1-.49-1.75,5.91,5.91,0,0,1,.42-2.21,4.06,4.06,0,0,1,1.11-1.63,2.32,2.32,0,0,1,1.5-.58,2,2,0,0,1,1,.25,1.64,1.64,0,0,1,.64.71h0l.34-.83h1.36l-1.4,6.55H26.44l.08-.85h0A2.35,2.35,0,0,1,24.63,15.73Zm.69-1.42a1.09,1.09,0,0,0,.78-.39,3,3,0,0,0,.61-1.07,4.72,4.72,0,0,0,.22-1.52,1,1,0,0,0-.22-.68.72.72,0,0,0-.6-.28,1,1,0,0,0-.76.42,3.19,3.19,0,0,0-.57,1.12,4.7,4.7,0,0,0-.21,1.37,1.27,1.27,0,0,0,.19.77A.67.67,0,0,0,25.32,14.31Zm9-5.37a1.44,1.44,0,0,1,1.53,1.34h0a3,3,0,0,1,.94-1A2.13,2.13,0,0,1,38,8.94a1.5,1.5,0,0,1,1.21.5,2.1,2.1,0,0,1,.42,1.39,4.83,4.83,0,0,1-.13,1.05l-.78,3.74H37l.81-3.83a3.27,3.27,0,0,0,.1-.7c0-.48-.2-.72-.58-.72a1.2,1.2,0,0,0-1,.66,5.28,5.28,0,0,0-.7,1.86l-.56,2.73H33.29l.8-3.83a3.2,3.2,0,0,0,.09-.7q0-.72-.57-.72a1.23,1.23,0,0,0-1,.67,5.67,5.67,0,0,0-.69,1.86l-.58,2.72H29.6L31,9.07h1.35l-.13,1.21h0A2.46,2.46,0,0,1,34.33,8.94ZM45,8.94a1.62,1.62,0,0,1,1.35.63,2.79,2.79,0,0,1,.5,1.76,5.87,5.87,0,0,1-.4,2.16,4.19,4.19,0,0,1-1.1,1.64,2.3,2.3,0,0,1-1.54.6,1.57,1.57,0,0,1-.83-.21,2,2,0,0,1-.65-.74h0A12.4,12.4,0,0,1,42,16.51l-.42,2H39.84l2-9.43h1.34l-.1,1h.06A2.3,2.3,0,0,1,45,8.94Zm-.7,1.43a1.07,1.07,0,0,0-.78.4,2.92,2.92,0,0,0-.59,1.05,4.52,4.52,0,0,0-.23,1.46,1.17,1.17,0,0,0,.22.75.7.7,0,0,0,.6.28,1,1,0,0,0,.75-.4,3,3,0,0,0,.57-1.11,4.59,4.59,0,0,0,.22-1.4C45.06,10.72,44.81,10.37,44.3,10.37Zm5.06,5.25H47.6L49,9.07h1.76Zm-.09-8.09a1,1,0,0,1,.28-.77,1.12,1.12,0,0,1,.79-.26,1,1,0,0,1,.65.18.63.63,0,0,1,.22.52A1.09,1.09,0,0,1,51,8a1,1,0,0,1-.8.29C49.56,8.25,49.27,8,49.27,7.53Zm8.17,4A5.41,5.41,0,0,1,57,13.73a3.26,3.26,0,0,1-1.19,1.48,3.22,3.22,0,0,1-1.85.52,2.36,2.36,0,0,1-2.51-2.52A5.56,5.56,0,0,1,51.89,11,3.38,3.38,0,0,1,53.1,9.48,3.22,3.22,0,0,1,55,8.94a2.42,2.42,0,0,1,1.82.69A2.63,2.63,0,0,1,57.44,11.54Zm-1.78,0c0-.77-.28-1.16-.84-1.16a1.06,1.06,0,0,0-.78.36,2.48,2.48,0,0,0-.57,1,4.58,4.58,0,0,0-.22,1.42c0,.73.29,1.09.88,1.09a1.09,1.09,0,0,0,.79-.36,2.51,2.51,0,0,0,.55-1A4.84,4.84,0,0,0,55.66,11.54Zm8,4.08H61.93l.8-3.83a3.2,3.2,0,0,0,.09-.7q0-.72-.63-.72a1.23,1.23,0,0,0-1,.67,5.67,5.67,0,0,0-.69,1.86L60,15.62H58.18l1.39-6.55h1.35l-.12,1.21h0a2.46,2.46,0,0,1,2.08-1.34,1.61,1.61,0,0,1,1.25.49,2,2,0,0,1,.44,1.4,5,5,0,0,1-.13,1.05Zm6.83-7.19a2.29,2.29,0,0,0-1.4.47,3.27,3.27,0,0,0-1,1.4,5.24,5.24,0,0,0-.37,2,2.21,2.21,0,0,0,.4,1.46,1.6,1.6,0,0,0,1.28.47,5.44,5.44,0,0,0,2-.45v1.52a6.49,6.49,0,0,1-2.35.45,3,3,0,0,1-2.31-.87,3.49,3.49,0,0,1-.83-2.48,6.62,6.62,0,0,1,.61-2.83,4.63,4.63,0,0,1,1.63-2,4.15,4.15,0,0,1,2.35-.67,5.72,5.72,0,0,1,1.3.13A5.29,5.29,0,0,1,73,7.53L72.34,9a4.66,4.66,0,0,0-1-.46A2.8,2.8,0,0,0,70.52,8.43Zm7,5,3.22-6.41h2.48l-1.81,8.57H79.72l.85-4.06c.21-1,.41-1.82.62-2.58h0l-3.34,6.64H76.18L75.82,9h0c0,.34-.12.79-.23,1.35s-.47,2.32-1.09,5.29H72.87l1.81-8.57H77l.4,6.41Zm11.19-.37A2.36,2.36,0,0,1,87.79,15a3.56,3.56,0,0,1-2.35.71,3.74,3.74,0,0,1-2.09-.52V13.6a4.4,4.4,0,0,0,2.1.63,1.89,1.89,0,0,0,1-.24.81.81,0,0,0,.37-.69,1.19,1.19,0,0,0-.08-.44,1.32,1.32,0,0,0-.23-.35,6.14,6.14,0,0,0-.73-.6,4,4,0,0,1-1.13-1.15,2.4,2.4,0,0,1-.33-1.22,2.58,2.58,0,0,1,.36-1.36,2.52,2.52,0,0,1,1-.92,3.42,3.42,0,0,1,1.54-.33,4.74,4.74,0,0,1,2.33.58L89,8.87a4,4,0,0,0-1.69-.43,1.24,1.24,0,0,0-.8.26.9.9,0,0,0-.31.7,1,1,0,0,0,.2.62,3.55,3.55,0,0,0,.86.71,3.38,3.38,0,0,1,1.06,1A2.43,2.43,0,0,1,88.66,13.09ZM2,4H0V23H94V21H2ZM98,0H0V2H96V23h2Z"/></svg>